<?xml version="1.0" encoding="utf-8"?>
<!-- Generator: Adobe Illustrator 27.5.0, SVG Export Plug-In . SVG Version: 6.00 Build 0)  -->
<svg version="1.1" xmlns="http://www.w3.org/2000/svg" xmlns:xlink="http://www.w3.org/1999/xlink" x="0px" y="0px"
	 viewBox="0 0 500 500" style="enable-background:new 0 0 500 500;" xml:space="preserve">
<g id="BACKGROUND">
	<rect style="fill:#C5EBDC;" width="500" height="500"/>
	<path style="opacity:0.15;fill:#75480C;" d="M433.446,439.112c0,7.13-82.764,12.91-184.858,12.91
		c-102.094,0-184.858-5.78-184.858-12.91c0-7.13,82.764-12.91,184.858-12.91C350.682,426.203,433.446,431.983,433.446,439.112z"/>
</g>
<g id="OBJECTS">
	<g>
		<path style="fill:#FFFFFF;" d="M357.695,435.723c0,0-12.946-17.963-0.938-57.47c0.433-0.433-71.167,0-71.167,0l4.962,58.135
			L357.695,435.723z"/>
		<path style="opacity:0.15;fill:#00495C;" d="M301.636,396.872c16-0.945,32.148-0.945,48.15,0
			C333.782,397.817,317.637,397.816,301.636,396.872L301.636,396.872z"/>
		<path style="opacity:0.15;fill:#00495C;" d="M300.212,423.8c11.386-0.944,18.728-0.945,30.116,0
			C318.939,424.745,311.599,424.745,300.212,423.8L300.212,423.8z"/>
		<path style="opacity:0.15;fill:#01708B;" d="M351.353,408.299h-66.476v7.255h66.979
			C351.551,413.145,351.396,410.723,351.353,408.299z"/>
		<path style="opacity:0.15;fill:#01708B;" d="M355.232,429.676h-70.355v6.047h72.818
			C356.768,433.74,355.957,431.72,355.232,429.676z"/>
		<path style="opacity:0.15;fill:#01708B;" d="M284.877,384.651v2.136h69.555c0.226-0.718,0.495-1.424,0.745-2.136H284.877z"/>
		<path style="fill:#01A79D;" d="M294.975,378.686h69.441v-3.489h-67.608h-4.545H118.98c-14.495,0-17.888,16.187-18.748,26.245
			v11.284c0.747,9.451,4.254,26.245,18.748,26.245h173.282v0.142h72.154v-3.489h-69.371
			C285.787,417.773,285.765,396.554,294.975,378.686z"/>
		<path style="fill:none;stroke:#FCFFF5;stroke-width:1.1403;stroke-miterlimit:10;" d="M276.885,430.754H117.674
			c-2.557,0-4.63-2.073-4.63-4.63v-40.361c0-2.557,2.073-4.63,4.63-4.63h159.211c2.557,0,4.63,2.073,4.63,4.63v40.361
			C281.515,428.681,279.443,430.754,276.885,430.754z"/>
		<circle style="fill:none;stroke:#FCFFF5;stroke-width:1.1403;stroke-miterlimit:10;" cx="260.603" cy="405.648" r="11.203"/>
		<g>
			
				<line style="fill:none;stroke:#FCFFF5;stroke-width:1.1403;stroke-linecap:round;stroke-miterlimit:10;" x1="238.198" y1="388.349" x2="238.198" y2="424.509"/>
			
				<line style="fill:none;stroke:#FCFFF5;stroke-width:1.1403;stroke-linecap:round;stroke-miterlimit:10;" x1="232.324" y1="388.349" x2="232.324" y2="424.509"/>
		</g>
		<g>
			
				<line style="fill:none;stroke:#FCFFF5;stroke-width:1.1403;stroke-linecap:round;stroke-miterlimit:10;" x1="141.426" y1="386.122" x2="141.426" y2="422.281"/>
			
				<line style="fill:none;stroke:#FCFFF5;stroke-width:1.1403;stroke-linecap:round;stroke-miterlimit:10;" x1="135.552" y1="386.122" x2="135.552" y2="422.281"/>
		</g>
		<path style="opacity:0.15;fill:#0C7475;" d="M364.416,439.112v-3.489h-69.371c-2.95-5.688-4.953-11.719-6.028-17.874
			c-69.393-0.127-159.276-1.123-188.397-1.456c1.327,9.572,5.554,22.677,18.36,22.677h173.282v0.142H364.416z"/>
	</g>
	<g>
		<g>
			<path style="fill:#FFFFFF;" d="M291.099,187.887H183.112c-13.233-22.842,0-36.992,0-36.992h107.986
				C291.099,150.895,281.389,167.385,291.099,187.887z"/>
			<path style="opacity:0.15;fill:#00495C;" d="M237.502,159.529c15.999-0.945,32.148-0.945,48.15,0
				C269.648,160.473,253.503,160.473,237.502,159.529L237.502,159.529z"/>
			<path style="opacity:0.15;fill:#00495C;" d="M188.968,177.424c11.386-0.944,18.728-0.945,30.116,0
				C207.695,178.369,200.355,178.368,188.968,177.424L188.968,177.424z"/>
			<path style="opacity:0.15;fill:#01708B;" d="M287.041,164.585H177.445c-0.339,2.821-0.31,6.036,0.366,9.613h109.282
				C286.671,170.696,286.722,167.461,287.041,164.585z"/>
			<path style="opacity:0.15;fill:#01708B;" d="M183.112,187.887h107.986c-0.786-1.66-1.433-3.29-1.98-4.891H180.622
				C181.325,184.58,182.139,186.207,183.112,187.887z"/>
			<path style="opacity:0.15;fill:#01708B;" d="M181.602,152.911c-0.579,0.887-1.255,2.061-1.902,3.499h109.084
				c0.461-1.427,0.928-2.602,1.323-3.499H181.602z"/>
		</g>
		<path style="fill:none;stroke:#EDA156;stroke-width:3.421;stroke-miterlimit:10;" d="M297.986,150.895H181.245
			c0,0-13.233,14.15,0,36.992h116.741"/>
	</g>
	<g>
		<g>
			<rect x="130.976" y="355.484" style="fill:#009EE5;" width="204.887" height="19.588"/>
			<rect x="255.228" y="358.471" style="fill:#FFFFFF;" width="80.635" height="13.443"/>
			
				<line style="opacity:0.15;fill:none;stroke:#01A79D;stroke-width:1.1403;stroke-miterlimit:10;" x1="255.228" y1="361.372" x2="335.863" y2="361.372"/>
			
				<line style="opacity:0.15;fill:none;stroke:#01A79D;stroke-width:1.1403;stroke-miterlimit:10;" x1="255.228" y1="365.791" x2="335.863" y2="365.791"/>
			<rect x="255.228" y="368.405" style="opacity:0.15;fill:#01708B;" width="80.635" height="3.51"/>
			<rect x="130.976" y="371.915" style="opacity:0.15;fill:#253745;" width="204.887" height="3.158"/>
			<rect x="138.943" y="355.484" style="fill:#253745;" width="7.469" height="19.588"/>
			<rect x="150.429" y="355.484" style="fill:#253745;" width="3.734" height="19.588"/>
			<rect x="236.159" y="355.484" style="fill:#253745;" width="7.468" height="19.588"/>
			<rect x="255.228" y="358.471" style="opacity:0.15;fill:#253745;" width="2.029" height="13.267"/>
			
				<line style="fill:none;stroke:#253745;stroke-width:5.7017;stroke-miterlimit:10;" x1="162.673" y1="365.105" x2="227.649" y2="365.105"/>
		</g>
		<polygon style="opacity:0.34;fill:#253745;" points="198.884,356.109 221.752,371.739 241.917,356.109 		"/>
	</g>
	<g>
		<g>
			<polygon style="fill:#EE4F3C;" points="125.206,189.157 330.092,189.157 330.092,234.809 125.206,234.809 125.206,227.648 
				129.157,227.648 133.918,196.311 125.206,196.124 			"/>
			<path style="fill:#FFFFFF;" d="M127.632,196.318h78.036l0.146,0.343c4.198,9.885,4.145,21.145-0.146,30.988l0,0h-78.036V196.318z
				"/>
			<path style="opacity:0.15;fill:#01A79D;" d="M208.312,218.839h-80.4v1.505h80.109
				C208.13,219.845,208.224,219.342,208.312,218.839z"/>
			<path style="opacity:0.15;fill:#01A79D;" d="M208.764,208.49h-80.852v1.607h80.965
				C208.852,209.561,208.812,209.025,208.764,208.49z"/>
			<path style="opacity:0.15;fill:#01708B;" d="M205.815,196.661l-0.146-0.343h-77.756v6.884h80.008
				C207.411,200.977,206.717,198.786,205.815,196.661z"/>
			<path style="opacity:0.15;fill:#253745;" d="M205.669,196.318h-5.312v31.331h5.312c4.291-9.842,4.344-21.103,0.146-30.988
				L205.669,196.318z"/>
			<rect x="125.206" y="189.433" style="opacity:0.15;fill:#253745;" width="204.887" height="5.589"/>
			
				<rect x="314.658" y="189.157" transform="matrix(-1 -1.224647e-16 1.224647e-16 -1 636.7836 423.9662)" style="fill:#FFFFFF;" width="7.469" height="45.652"/>
			
				<rect x="306.906" y="189.157" transform="matrix(-1 -1.224647e-16 1.224647e-16 -1 617.5456 423.9662)" style="fill:#FFFFFF;" width="3.734" height="45.652"/>
			
				<rect x="217.442" y="189.157" transform="matrix(-1 -1.224647e-16 1.224647e-16 -1 442.3515 423.9662)" style="fill:#FFFFFF;" width="7.468" height="45.652"/>
		</g>
		<rect x="232.163" y="202.012" style="opacity:0.15;fill:#253745;" width="68.049" height="21.347"/>
	</g>
	<g>
		<g>
			<path style="fill:#FFFFFF;" d="M145.964,314.735c0,0-6.313,10.143-6.313,19.387c0,9.245,5.103,18.843,5.103,18.843l75.449,0.565
				l-0.11-38.251L145.964,314.735z"/>
			<path style="fill:#F4F0ED;" d="M220.588,313.589c0,0-5.8,9.762-5.8,19.499s5.103,19.847,5.103,19.847l90.776,0.595l-0.183-0.572
				c-4.13-12.921-4.105-26.812,0.073-39.717l0,0L220.588,313.589z"/>
			<path style="opacity:0.15;fill:#5E3619;" d="M235.416,327.48c14.021-0.828,28.173-0.828,42.197,0
				C263.588,328.309,249.439,328.308,235.416,327.48L235.416,327.48z"/>
			<path style="opacity:0.15;fill:#5E3619;" d="M152.536,337.848c9.206-0.828,18.497-0.828,27.704,0
				C171.032,338.676,161.743,338.675,152.536,337.848L152.536,337.848z"/>
			<path style="opacity:0.15;fill:#5E3619;" d="M172.257,323.156c9.206-0.828,18.497-0.828,27.704,0
				C190.753,323.984,181.463,323.984,172.257,323.156L172.257,323.156z"/>
			<path style="opacity:0.15;fill:#5E3619;" d="M256.515,345.531c14.022-0.828,28.173-0.828,42.197,0
				C284.687,346.359,270.538,346.358,256.515,345.531L256.515,345.531z"/>
			<path style="opacity:0.15;fill:#5E3619;" d="M172.257,346.771c12.403,0.732,24.904,0.814,37.331,0.251
				c-0.029-0.169-0.06-0.338-0.088-0.507C197.102,345.957,184.629,346.041,172.257,346.771z"/>
			<path style="fill:none;stroke:#EDA156;stroke-width:3.421;stroke-miterlimit:10;" d="M220.217,354.429h-74.702l-1.24-2.274
				c-6.417-11.772-5.943-26.098,1.24-37.42l0,0h74.702"/>
			<rect x="220.203" y="313.054" style="fill:#EA8E42;" width="95.349" height="3.361"/>
			<rect x="220.297" y="352.747" style="fill:#EA8E42;" width="95.35" height="3.361"/>
		</g>
		<g>
			<polygon style="fill:#B44858;" points="297.155,365.193 289.854,361.372 282.553,365.193 282.553,334.133 297.155,334.133 			"/>
			<rect x="282.553" y="334.133" style="opacity:0.15;fill:#253745;" width="14.602" height="4.336"/>
		</g>
	</g>
	<g>
		<rect x="164.141" y="263.372" style="fill:#8F268B;" width="173.88" height="49.682"/>
		<rect x="182.433" y="263.372" style="fill:#EA8E42;" width="7.468" height="49.682"/>
		<rect x="311.536" y="263.372" style="fill:#EA8E42;" width="7.468" height="49.682"/>
		<rect x="325.711" y="263.372" style="fill:#EA8E42;" width="3.734" height="49.682"/>
		<rect x="164.141" y="300.217" style="opacity:0.15;fill:#253745;" width="173.88" height="12.837"/>
		<rect x="164.141" y="263.372" style="opacity:0.15;fill:#253745;" width="173.88" height="7.469"/>
		<rect x="164.141" y="271.346" style="opacity:0.2;fill:#AD38AD;" width="173.88" height="5.971"/>
		<rect x="164.141" y="294.184" style="opacity:0.2;fill:#AD38AD;" width="173.88" height="5.971"/>
	</g>
	<g>
		<g>
			<path style="fill:#009EE5;" d="M150.429,263.677h190.046c8.196,0,14.841-6.644,14.841-14.841v0
				c0-8.196-6.644-14.841-14.841-14.841H150.429v1.519l29.065,0.467l2.988,25.597l-32.052,0.356V263.677z"/>
			<g>
				<path style="fill:#FFFFFF;" d="M153.819,261.694l85.395-0.761l0.158-0.483c2.63-8.015,2.573-16.938-0.158-24.904v0h-85.868v0
					c0.346,0.609,6.013,4.036,5.64,13.893C158.697,257.06,154.078,262.493,153.819,261.694z"/>
				<path style="opacity:0.15;fill:#01A79D;" d="M155.627,237.918h84.292c-0.216-0.796-0.437-1.592-0.704-2.372h-85.868
					C153.486,235.792,154.498,236.511,155.627,237.918z"/>
				<path style="opacity:0.15;fill:#01A79D;" d="M239.899,258.589c0.214-0.785,0.403-1.574,0.567-2.372H158.46
					c-0.403,0.894-0.843,1.693-1.284,2.372H239.899z"/>
				<path style="opacity:0.15;fill:#01A79D;" d="M158.987,248.432h82.302c0.011-2.241-0.153-4.482-0.518-6.689h-82.952
					C158.502,243.499,158.976,245.705,158.987,248.432z"/>
				<path style="opacity:0.15;fill:#8999A1;" d="M239.214,235.546h-3.837c1.577,2.942,2.897,7.024,2.744,12.572
					c-0.148,5.378-1.135,9.638-2.271,12.845l3.364-0.03l0.158-0.483C242.002,252.435,241.946,243.512,239.214,235.546z"/>
			</g>
			<path style="opacity:0.15;fill:#253745;" d="M349.094,260.902c-35.748-0.121-166.613,0.676-166.613,0.676l-32.053,0.356v1.743
				h190.046C343.693,263.677,346.663,262.642,349.094,260.902z"/>
			<path style="opacity:0.15;fill:#253745;" d="M340.475,233.996H150.429v1.519l29.936-0.093l58.849,0.125l1.251,3.983h111.56
				C349.306,236.157,345.145,233.996,340.475,233.996z"/>
			
				<line style="opacity:0.15;fill:none;stroke:#253745;stroke-width:0.5702;stroke-miterlimit:10;" x1="157.176" y1="240.306" x2="240.466" y2="240.306"/>
			
				<line style="opacity:0.15;fill:none;stroke:#253745;stroke-width:0.5702;stroke-miterlimit:10;" x1="158.814" y1="252.396" x2="241.234" y2="252.596"/>
			
				<line style="opacity:0.15;fill:none;stroke:#253745;stroke-width:0.5702;stroke-miterlimit:10;" x1="156.839" y1="258.693" x2="239.899" y2="258.693"/>
			<g>
				<rect x="252.401" y="233.996" style="fill:#253745;" width="0.943" height="29.682"/>
				<rect x="263.293" y="233.996" style="fill:#253745;" width="0.943" height="29.682"/>
			</g>
			<g>
				<path style="fill:#253745;" d="M342.225,234.229l0.049,0.075c5.55,8.586,5.713,19.783,0.414,28.526l-0.444,0.732
					c0.263-0.031,0.523-0.074,0.782-0.119l0.181-0.298c5.37-8.86,5.25-20.181-0.276-28.929c-0.234-0.039-0.467-0.08-0.705-0.108
					V234.229z"/>
				<path style="fill:#253745;" d="M333.906,233.996h-0.623c-2.25,9.778-2.007,20.002,0.73,29.682h0.632
					C331.879,254.002,331.633,243.771,333.906,233.996z"/>
			</g>
			<rect x="266.129" y="244.757" style="opacity:0.15;fill:#334E63;" width="64.354" height="10.207"/>
		</g>
		<g>
			<polygon style="fill:#01A79D;" points="227.504,294.704 220.203,290.883 212.902,294.704 212.902,246.564 227.504,246.564 			"/>
			<rect x="212.902" y="246.564" style="opacity:0.15;fill:#253745;" width="14.602" height="4.336"/>
		</g>
	</g>
	<g>
		<g>
			<path style="fill:#EDEFEF;" d="M275.333,75.874l-4.07,10.412c0,0-18.775,10.042-24.769,41.581
				c-1.343,7.069-2.642-8.223-3.712-0.372c0,0-2.727-15.893,20.954-40.089C263.572,87.117,273.322,77.412,275.333,75.874z"/>
			<path style="fill:#F4F6F5;" d="M275.333,75.874c-8.196,6.647-15.823,14.047-22.229,22.481c-3.168,4.255-6.052,8.815-7.934,13.937
				c-1.706,4.679-4.011,14.229-3.863,14.145l1.573,2.778c0.403-0.221,3.56-3.313,3.548-3.739c-0.129-4.5-0.469-7.465,1.013-12.425
				c1.507-4.863,4.068-9.451,6.964-13.771C260.306,90.635,267.539,82.874,275.333,75.874L275.333,75.874z"/>
		</g>
		<path style="fill:#DCE4E5;" d="M187.22,96.746l5.243,5.329c0,0,18.448-2.074,41.589,21.067c5.088,5.088,0.332-4.777,5.13,1.528
			c0,0-5.458-15.173-37.987-24.561C201.196,99.777,189.727,97.094,187.22,96.746z"/>
		<path style="fill:#DCE4E5;" d="M155.855,112.445l14.338,4.031c0,0,5.791-2.308,13.919-2.612
			c17.52-0.655,27.927,3.902,34.384,6.219l15.541,8.213l1.87-2.971c0,0-27.718-18.421-41.043-18.12
			C165.829,107.861,155.855,112.445,155.855,112.445z"/>
		<path style="fill:#DCE4E5;" d="M328.641,112.587l-14.338,4.031c0,0-5.791-2.308-13.919-2.612
			c-17.52-0.655-27.927,3.902-34.385,6.219l-15.54,8.213l-1.87-2.971c0,0,27.718-18.421,41.043-18.12
			C318.667,108.002,328.641,112.587,328.641,112.587z"/>
		<path style="fill:#F4F6F5;" d="M202.302,119.238c-26.996,3.275-60.923,13.314-61.574,13.965c0.273,0.697,0.504,1.438,0.7,2.207
			c0.127,0.498,3.489,0.366,3.489,0.366l-2.988,1.637c0.081,0.597,0.149,1.209,0.205,1.827c0.015,0.169,2.047-0.197,2.047-0.026
			c0,0.327-1.964,1.053-1.947,1.311c0.308,4.707,0.023,9.314,0.023,9.314l90.025-10.745c0,0,11.236-3.55,11.005-5.874
			C242.402,124.314,229.299,115.963,202.302,119.238z"/>
		<path style="fill:#F4F6F5;" d="M282.917,123.436c26.996,3.275,47.874,10.742,48.525,11.393c-0.273,0.697-0.018,2.8-0.214,3.569
			c-0.127,0.498-3.489,0.366-3.489,0.366l2.988,1.637c-0.081,0.597-0.149,1.209-0.205,1.827c-0.015,0.169-2.047-0.197-2.047-0.026
			c0,0.327,1.964,1.053,1.947,1.311c-0.308,4.707-0.549,6.326-0.549,6.326l-90.025-10.745c0,0,1.225-1.429,1.455-3.753
			C242.189,126.434,255.92,120.161,282.917,123.436z"/>
		<path style="fill:#F4F6F5;" d="M156.073,112.445c0,0,26.456-10.042,57.02,2.511c10.427,3.93,11.872,5.158,15.127,7.926
			c3.6,3.061,7.685,13.612,7.156,12.721l4.267-9.622c0,0-27.775-21.421-53.315-20.521
			C164.628,106.223,156.073,112.445,156.073,112.445z"/>
		<path style="fill:#F4F6F5;" d="M328.99,112.445c0,0-26.456-10.042-57.02,2.511c-10.427,3.93-11.872,5.158-15.127,7.926
			c-3.6,3.061-7.685,13.612-7.157,12.721l-13.392-2.458l4.996-5.226c0,0,31.903-23.359,57.444-22.459
			C320.435,106.223,328.99,112.445,328.99,112.445z"/>
		<path style="fill:#F4F6F5;" d="M186.782,96.672c10.407,1.746,20.691,4.427,30.421,8.61c4.853,2.141,9.61,4.689,13.771,8.219
			c3.79,3.232,6.654,7.68,10.669,12.257c-0.109-0.124,2.237,5.07,1.14,1.739c1.236,3.751-2.316,3.97-2.316,3.97
			c-0.46,0.006-3.891-5.496-4.09-5.872c-2.105-3.979-3.27-6.727-7.003-10.313c-3.707-3.489-8.196-6.219-12.845-8.552
			C207.132,102.113,197.013,98.923,186.782,96.672L186.782,96.672z"/>
		<path style="opacity:0.15;fill:#778084;" d="M219.507,123.436c-10.867,1.957-22.945,3.828-33.939,5.236
			C196.517,125.753,208.009,123.973,219.507,123.436L219.507,123.436z"/>
		<path style="opacity:0.15;fill:#778084;" d="M283.243,128.095c10.867,1.957,22.945,3.828,33.938,5.236
			C306.233,130.412,294.741,128.632,283.243,128.095L283.243,128.095z"/>
		<path style="opacity:0.15;fill:#778084;" d="M229.653,130.714c-10.075,1.741-61.064,6.23-72.96,7.926
			c-13.014,1.856,32.236-5.357,43.733-5.894L229.653,130.714z"/>
		<g style="opacity:0.15;">
			<path style="fill:#778084;" d="M149.113,144.389c3.723-1.543,7.767-2.355,11.797-2.359
				C157.96,142.571,152.044,143.755,149.113,144.389L149.113,144.389z"/>
		</g>
		<g style="opacity:0.15;">
			<path style="fill:#778084;" d="M266.755,134.23c8.426-0.881,16.935-0.358,25.35,0.442c8.381,1.013,16.859,2.483,24.65,5.84
				c-1.017-0.295-2.028-0.597-3.033-0.911C298.429,135.654,282.512,134.414,266.755,134.23L266.755,134.23z"/>
		</g>
		<g style="opacity:0.15;">
			<path style="fill:#778084;" d="M294.265,140.156c3.404-0.185,6.676,0.34,9.846,1.599
				C300.732,141.95,297.41,141.405,294.265,140.156L294.265,140.156z"/>
		</g>
		<path style="fill:#778084;" d="M253.351,140.147c0,0-4.059-8.187-10.549-8.187c-6.491,0-12.476,8.187-12.476,8.187
			s1.72,6.447,11.513,6.447S253.351,145.714,253.351,140.147z"/>
		
			<line style="fill:none;stroke:#8EAF47;stroke-width:3.5771;stroke-linecap:round;stroke-miterlimit:10;" x1="140.21" y1="151.473" x2="230.927" y2="140.986"/>
		
			<line style="fill:none;stroke:#8EAF47;stroke-width:3.5771;stroke-linecap:round;stroke-miterlimit:10;" x1="253.351" y1="140.955" x2="336.472" y2="153.628"/>
		<path style="fill:none;stroke:#B0CE5F;stroke-width:3.5349;stroke-linecap:round;stroke-miterlimit:10;" d="M253.351,141.521
			c0,3.488-4.902,6.316-10.949,6.316c-6.047,0-10.949-2.828-10.949-6.316"/>
		<path style="opacity:0.15;fill:#4B5254;" d="M242.802,131.961c-5.242,0-10.15,5.335-11.846,7.39
			c0.261-0.127,0.539-0.267,0.835-0.415c2.241-1.12,4.366-2.326,6.794-3.03c3.565-1.034,7.578-1.061,10.819,0.749
			c1.223,0.683,2.296,1.6,3.382,2.493C251.469,136.972,247.887,131.961,242.802,131.961z"/>
	</g>
	<g>
		
			<rect x="360.004" y="277.706" transform="matrix(0.9566 -0.2913 0.2913 0.9566 -87.7425 125.5499)" style="fill:#EDA156;" width="35.606" height="159.532"/>
		<polygon style="opacity:0.2;fill:#FFFFFF;" points="365.028,277.981 410.907,430.775 418.073,428.592 371.604,275.979 		"/>
		
			<rect x="341.987" y="292.128" transform="matrix(0.9566 -0.2913 0.2913 0.9566 -71.2889 117.7377)" style="fill:#FFD4AE;" width="35.606" height="12.344"/>
		
			<rect x="379.947" y="420.759" transform="matrix(0.9566 -0.2913 0.2913 0.9566 -105.901 134.1824)" style="fill:#FFD4AE;" width="35.549" height="4.033"/>
		
			<rect x="377.671" y="413.285" transform="matrix(0.9566 -0.2913 0.2913 0.9566 -103.8237 133.1973)" style="fill:#FFD4AE;" width="35.549" height="4.033"/>
		<polygon style="opacity:0.15;fill:#B44959;" points="337.542,286.35 384.011,438.964 393.704,436.012 344.151,284.338 		"/>
		
			<rect x="381.745" y="427.972" transform="matrix(0.9566 -0.2913 0.2913 0.9566 -107.5976 134.9785)" style="fill:#CE7525;" width="35.606" height="1.801"/>
		<path style="fill:#CE7525;" d="M345.57,284.457c0.596,1.694,2.05,2.942,3.815,3.273l4.908,0.921
			c1.765,0.331,3.572-0.304,4.742-1.667l3.252-3.789c1.111-1.295,1.475-3.058,0.999-4.684l-17.89,5.447L345.57,284.457z"/>
	</g>
</g>
</svg>
